<?xml version="1.0" encoding="UTF-8"?>
<svg width="20" height="20" viewBox="0 0 24 24" fill="none" xmlns="http://www.w3.org/2000/svg">
  <path fill-rule="evenodd" clip-rule="evenodd" d="M12.5 0.999756L13 3.05487C13.9171 3.15638 14.7934 3.39584 15.6072 3.75216L17.0669 2.22365L17.933 2.72358L17.3385 4.75346C18.066 5.29023 18.7096 5.9339 19.2464 6.66143L21.2762 6.06687L21.8006 6.97502L20.2477 8.39271C20.604 9.20642 20.8435 10.0828 20.945 10.9999L23 11.4998V12.4998L20.945 12.9999C20.8435 13.917 20.604 14.7933 20.2476 15.6071L21.8006 17.0248L21.2762 17.9329L19.2463 17.3384C18.7096 18.0659 18.0659 18.7095 17.3384 19.2462L17.933 21.2761L17.067 21.7761L15.6071 20.2476C14.7934 20.6039 13.9171 20.8434 13 20.9449L12.5 22.9998L11.4516 22.9998L11 20.9449C10.0829 20.8434 9.20657 20.6039 8.39288 20.2476L6.93298 21.7762L6.06694 21.2762L6.66159 19.2463C5.93404 18.7095 5.29035 18.0658 4.75357 17.3383L2.72367 17.9329L2.22356 17.0669L3.75225 15.607C3.39594 14.7933 3.15649 13.9169 3.05498 12.9998L1 12.4998V11.4998L3.05499 10.9998C3.1565 10.0828 3.39593 9.20646 3.75222 8.3928L2.22373 6.93291L2.74804 6.02477L4.7535 6.66149C5.29029 5.93392 5.93399 5.29022 6.66155 4.75343L6.06697 2.72357L6.933 2.22356L8.39285 3.75213C9.20655 3.39582 10.0829 3.15637 11 3.05487L11.4516 0.999756H12.5Z" fill="currentColor"/>
  <circle cx="12" cy="12" r="2" fill="currentColor"/>
</svg>
